<?xml version="1.0" encoding="utf-8"?>
<svg xmlns="http://www.w3.org/2000/svg" viewBox="335.165 243.91 425.51 339.59" width="425.51px" height="339.59px">
  <path d="M 511.5 243.91 C 536.17 243.91 560.83 243.91 585.5 243.91 C 601.8 272.1 756.27 525.79 760.92 537.5 C 754.18 539.35 737.09 534.62 729.34 533.36 C 715.66 531.15 702.07 528.48 688.38 526.35 C 678.13 524.76 666.99 523.68 657.14 520.5 C 656.51 510.22 657.74 405.86 656.7 402.75 C 655.7 399.79 634.16 375.1 627.5 370.46 C 616.17 376.31 604.83 382.17 593.5 388.03 C 578.17 362.4 562.83 336.76 547.5 311.13 C 542.21 316.21 537.9 326.14 534.15 332.65 C 526.12 346.59 517.91 360.42 509.88 374.37 C 482.79 421.48 456.09 468.84 428.22 515.5 C 399.15 519.5 370.08 523.5 341.02 527.5 C 342.34 521.53 501.83 262.12 511.5 243.91 Z M 621.72 391.32 C 621.72 432.17 621.72 473.02 621.72 513.87 C 607.08 511.71 592.44 509.55 577.8 507.39 C 577.8 476.43 577.8 445.46 577.8 414.5 C 592.44 406.77 607.08 399.05 621.72 391.32 Z M 562.76 429.29 C 562.76 454.36 562.76 479.43 562.76 504.5 C 554.98 504.67 547.27 502.14 539.5 502.18 C 531.19 502.22 522.97 504.43 514.67 504.5 C 514.67 488.17 514.67 471.83 514.67 455.5 C 524.36 448.37 536.13 443 546.69 437.21 C 551.77 434.42 557.07 430.23 562.76 429.29 Z M 760.9 550.88 C 760.9 560.24 760.9 569.59 760.9 578.94 C 752.8 578.94 744.53 577.27 736.49 576.23 C 723.82 574.6 711.16 572.86 698.5 571.17 C 664.54 566.63 630.48 562.65 596.58 557.68 C 584.58 555.92 572.54 554.5 560.54 552.74 C 554.11 551.8 546.99 549.83 540.5 549.97 C 534.56 550.1 528.37 552.04 522.5 552.98 C 508.8 555.16 495.13 557.43 481.46 559.77 C 447.91 565.53 414.29 570.92 380.69 576.37 C 366.72 578.64 349.22 583.38 335.41 583.5 C 335.41 570.17 335.41 556.83 335.41 543.5 C 347.84 540.61 360.86 539.76 373.48 537.82 C 403.43 533.23 433.44 529 463.44 524.69 C 481.45 522.1 499.45 519.23 517.49 516.82 C 524.9 515.82 532.86 513.32 540.35 513.47 C 548.61 513.64 557.39 516.43 565.54 517.78 C 581.21 520.39 596.87 523.27 612.54 525.78 C 639.93 530.16 667.2 535.17 694.54 539.79 C 716.62 543.52 738.98 546.3 760.9 550.88 Z" transform="matrix(0.9999999999999999, 0, 0, 0.9999999999999999, -0.24501000344753265, 0)" fill-rule="evenodd" stroke="#282D32" stroke-width="0.25" stroke-linejoin="round" style="fill: rgb(40, 45, 50);"/>
</svg>